<svg t="1670071652617" class="icon" viewBox="0 0 1024 1024" version="1.1" xmlns="http://www.w3.org/2000/svg" p-id="1931" width="200" height="200" data-spm-anchor-id="a313x.7781069.0.i8"><path d="M1008.725333 239.018667l-39.722666 79.274666s-17.066667-31.488-33.92-45.909333c-16.085333-13.738667-36.864-26.453333-63.146667-23.722667-25.472 2.645333-54.186667 25.045333-73.472 62.293334-21.888 42.410667-29.354667 85.376-29.525333 132.778666-0.213333 66.389333 24.32 111.701333 24.32 111.701334s-5.632-21.077333-4.693334-56.746667c0.597333-22.186667 0.725333-46.464 17.493334-96.469333 14.08-41.813333 46.250667-75.733333 74.666666-81.578667 22.058667-4.565333 36.138667-1.28 57.856 14.037333 25.728 18.133333 41.216 50.901333 41.216 50.901334l40.362667-77.226667zM0 242.090667l160.853333 542.848h6.656l100.522667-336.469334 100.565333 336.469334h6.698667l137.728-464.853334 6.485333-11.008h113.28l-93.866666 162.218667v32.170667h26.837333c34.389333 0 59.648 10.496 75.733333 31.488 13.824 17.92 20.778667 43.136 20.778667 75.776 0 29.482667-6.485333 54.741333-19.413333 75.733333-12.970667 20.992-28.842667 31.488-47.616 31.488-17.877333 0-33.408-5.888-46.592-17.749333-13.141333-11.818667-23.765333-28.032-31.829334-48.597334l-54.954666 22.784c11.136 33.962667 28.373333 60.885333 51.626666 80.768a121.728 121.728 0 0 0 81.749334 29.824c41.557333 0 75.392-16.768 101.546666-50.261333 26.154667-33.493333 39.210667-74.837333 39.210667-123.989333 0-39.765333-8.96-74.368-26.794667-103.893334-17.92-29.44-44.245333-49.792-79.104-61.013333l99.242667-170.922667v-32.853333h-263.552L368.64 572.544 271.445333 242.090667h-70.4l32.170667 107.904-65.706667 222.506666L70.4 242.090667z m744.106667 378.88s9.941333 32.213333 16.170666 45.909333c3.584 7.893333 14.592 32 30.208 52.906667 14.549333 19.626667 42.837333 53.248 85.802667 60.842666 43.008 7.594667 72.533333-11.690667 79.829333-16.384a217.6 217.6 0 0 0 32.469334-28.032 246.613333 246.613333 0 0 0 25.173333-33.066666 321.28 321.28 0 0 0 10.24-18.432l-10.282667-53.546667s-17.834667 31.914667-28.928 44.202667c-11.136 12.288-31.018667 33.877333-55.552 44.714666-24.576 10.794667-37.418667 12.885333-61.696 10.538667-24.277333-2.304-46.805333-16.341333-54.698666-22.186667-7.893333-5.888-28.074667-23.125333-39.466667-39.253333-11.434667-16.042667-29.269333-48.213333-29.269333-48.213333z" p-id="1932" fill="#d4237a" data-spm-anchor-id="a313x.7781069.0.i2" class="selected"></path></svg>